PathFileType	4	(X/Y/Z)	T1_P1_NoVision_NoMovement_4_0-615.trc
DataRate	CameraRate	NumFrames	NumMarkers	Units	OrigDataRate	OrigDataStartFrame	OrigNumFrames
60	60	7	27	m	60	76	615
Frame#	Time	RHip			RKnee			RAnkle			RBigToe			RSmallToe			RHeel			LHip			LKnee			LAnkle			LBigToe			LSmallToe			LHeel			Neck			Head			Nose			RShoulder			RElbow			RWrist			RThumb			RIndex			RPinky			LShoulder			LElbow			LWrist			LThumb			LIndex			LPinky		
		X1	Y1	Z1	X2	Y2	Z2	X3	Y3	Z3	X4	Y4	Z4	X5	Y5	Z5	X6	Y6	Z6	X7	Y7	Z7	X8	Y8	Z8	X9	Y9	Z9	X10	Y10	Z10	X11	Y11	Z11	X12	Y12	Z12	X13	Y13	Z13	X14	Y14	Z14	X15	Y15	Z15	X16	Y16	Z16	X17	Y17	Z17	X18	Y18	Z18	X19	Y19	Z19	X20	Y20	Z20	X21	Y21	Z21	X22	Y22	Z22	X23	Y23	Z23	X24	Y24	Z24	X25	Y25	Z25	X26	Y26	Z26	X27	Y27	Z27
77	1.2833333333333334	-66.06072667231913	3781.8602367815097	-544.5001334634638	302.28742371741896	3887.5375439197533	-550.2194019180523	652.0298621425252	4169.6123575682195	-584.3609819241653	702.5647122139144	3953.8625829996918	-488.20875597740405	721.3703781431425	4034.998702313149	-597.6930202341771	683.750686322427	4188.989701709008	-559.0649192229794	-104.49045817842917	3902.572087017796	-356.9181589370041	241.354173733374	3993.0649449831776	-356.7497268199876	590.4624577220713	4201.374539037645	-386.86034707457185	681.1531063361884	4141.057642586097	-332.9558143704942	639.6848039601032	4158.54531314889	-293.42189907222513	623.1662257821257	4240.435049284453	-412.8676500968396	-666.6361468189449	3673.2757294144003	-484.7603917902767	-906.9799101220162	3541.5636093445733	-432.31484500213224	-750.3206511648112	3537.93332407937	-398.8839020754654	-558.8092683515874	3652.212661820697	-644.3324925692596	-298.8847602997329	3746.501577688886	-704.3749981272578	-42.9719851511528	3666.8904194573975	-615.8466469775963	70.86817659469034	3789.429896119678	-574.8062527218403	88.0863515538675	3768.1869049184393	-580.935525302897	84.25610118784424	3702.4121820619894	-587.8915494056021	-606.5162436721364	3765.2287698510863	-348.61681825144564	-390.11952408534586	3979.8435459468665	-338.043845645492	-122.31519721538662	3951.9841855561162	-296.8199524121172	11.75243022339158	3930.8009508899195	-326.6706506350595	29.200204228869534	3925.8362622177647	-284.418923110395	1.7288730462906075	3990.799408455314	-247.0185970577272
78	1.3	-66.03804423955752	3779.571619041454	-543.8548695616275	302.00883542838295	3880.933421503868	-545.0103307256268	648.7126154722008	4167.965751683458	-583.8631253387514	701.5474699694989	3952.6258662235327	-490.74962833463854	720.1220985686019	4035.1822398916224	-597.8758732655727	683.9858601483421	4190.535736878527	-558.2047901445428	-106.25927731637228	3901.289842702819	-356.3774537563177	243.72843213333766	4001.016877448436	-357.78729696928906	590.587850591676	4201.429476881385	-386.7908200850934	680.8129092858876	4137.730181110953	-330.64229161461435	641.0770049303989	4160.777915399984	-294.61068692232976	622.8379866478273	4239.921444801987	-412.6093899415531	-665.3889713323863	3673.6198153002906	-484.654112274224	-906.9806408757454	3541.4982608304826	-431.6545940018348	-749.6529267370962	3537.2489847380775	-398.7404463001036	-558.8113843634096	3652.201368530619	-644.335288029109	-298.9555195454118	3746.5279181920014	-704.3737043692229	-43.03267387239631	3673.693007131379	-617.6675407113694	71.13416589201319	3792.507858996406	-575.5796367266666	88.1954514032178	3770.665401869478	-581.486639147224	84.34789168931842	3705.413740385058	-588.6216017659906	-606.516489475232	3765.259029150953	-348.60629517005833	-391.3749699142547	3978.929996460731	-337.6987597424555	-121.7056107317872	3951.9907946708568	-295.8983625544886	11.812462878538469	3930.8568802348773	-326.78592631611906	29.243491903738267	3925.959467598304	-284.2165201115651	1.85535110947121	3991.109061913822	-247.8630296133603
79	1.3166666666666669	-66.08417185250607	3781.8263669439007	-544.3911466331898	300.7321780380624	3875.424268938301	-541.000935176498	645.0981546572459	4167.501834628892	-584.5937222639442	701.1091458761118	3956.1560699718857	-493.83071950899034	719.2670061890291	4035.228292956003	-597.9739615602768	685.0083633714389	4196.6971068950725	-561.0112192425772	-107.17746141862906	3900.6554671047506	-356.1471720597007	245.15595915307028	4001.62616342497	-357.6184670176086	591.442088969785	4201.970729896049	-386.73482248572316	681.2129275825491	4135.798101808431	-328.99490311095064	642.649345584969	4158.519990892641	-294.64848639044953	623.6353480301059	4242.937859530751	-414.46617387216867	-663.8885429728834	3674.0336610193904	-484.5358138941516	-906.9851444320734	3541.478059786802	-431.35376922023147	-749.4442081935456	3537.0682718656985	-398.6964912396571	-558.8148882921801	3652.2656560845485	-644.3834435503468	-298.8143681321012	3746.712482842375	-704.4493748980624	-43.069006519502075	3679.7630231199	-619.2778470316099	71.77164926540651	3793.119119012519	-575.8263392482822	88.6813918543343	3778.533516808833	-585.7668056397646	84.48704817163214	3709.840313458049	-589.5750808780052	-606.505296553269	3765.26391540608	-348.57899365595307	-391.43360118059604	3978.911709607138	-337.6879475175799	-121.91589845823303	3959.149295183226	-296.5014265824096	11.918780695676462	3931.016591597062	-326.9457013352345	29.13632376621336	3925.673185832369	-283.08881818563395	2.009636710712819	3991.693659881596	-249.09290204478586
80	1.3333333333333333	-66.15957508515731	3786.1581788811727	-545.5066811140688	298.45830078232655	3873.776337245481	-540.3078164045213	643.2088434497837	4169.825743062303	-587.1240748752086	701.0173694477232	3961.4188387496934	-495.7940598991291	717.4235922580528	4034.2662078856297	-597.716982800395	685.2126810636112	4204.223117939705	-566.1268927191758	-106.7963881859785	3900.969490531895	-356.3206399321791	244.75488304146785	3994.8218163824495	-356.3985445905238	592.8857459763482	4202.769613640361	-386.5592472816476	681.6944397861001	4135.426573533071	-328.48928008211635	642.9012168979532	4151.356671255626	-293.6755997469921	625.7423900017732	4249.842851121595	-418.6683310901534	-663.1620044907726	3674.2430044875937	-484.4880530997919	-906.9882636774469	3541.5039765302295	-431.40207802410146	-749.5702691245745	3537.6831793253405	-398.83100591085974	-558.819365309349	3652.3807946961165	-644.4547242675596	-298.2562538421704	3747.126000755921	-704.6386682029971	-43.038979855532375	3679.4993185409476	-619.1488308645119	72.66826750884896	3793.428115951504	-576.0552759056076	89.09934660153236	3785.5762055637233	-590.0974899309048	84.56055269279155	3712.271024898223	-589.672555710142	-606.4905378582913	3765.2481155521455	-348.5531217306792	-390.5568565295364	3979.6911390922196	-338.01571896052775	-122.87262287217477	3969.1158726731755	-298.02954282054804	11.841556150628085	3931.0721253364472	-326.8519997195881	28.948348400441386	3925.197495792334	-281.72599993326816	2.0576818021764463	3992.104169407657	-249.76074701197373
81	1.35	-66.21558663923086	3788.9639678565427	-546.2731947618586	295.25871745340874	3874.732445254667	-541.9878416452783	643.8638097241231	4176.191851331509	-592.0766615158751	699.6134232047241	3962.2231325522093	-494.55975560333474	713.8881576688659	4031.975901423313	-597.0879155267979	683.0185201804313	4208.486522768502	-570.1587107991479	-105.72591026376249	3901.7723509023504	-356.6779623766319	242.93087258341873	3987.682795967753	-355.4015717591565	593.9244492693457	4203.206441087691	-386.21102531589156	681.9272183842867	4135.558998805142	-328.52028937526063	642.2782772836284	4144.126070765714	-292.5700274055799	628.7747576685523	4258.592234701178	-423.87019646241174	-662.983664137801	3674.3136401495535	-484.4883385142049	-906.9719220426491	3541.553201658904	-432.0494751528318	-750.1682291933963	3540.5386066208775	-399.48243042472365	-558.8201136522778	3652.492229429919	-644.5141253273107	-297.4080356937429	3747.654436505288	-704.8848143266782	-42.97001845767625	3673.7448947610446	-617.5287332597545	73.12533717825315	3793.8721248532433	-576.2384508363675	89.21216689921835	3788.922509420493	-592.2887585938154	84.49664259575356	3710.385730582839	-588.4186775355756	-606.474048645038	3765.232851454005	-348.5389538883969	-389.5608360423158	3980.7627379878722	-338.5356216607066	-124.54839336862788	3975.99764229827	-299.1280985787255	11.133218546841537	3930.541261422758	-325.9191925990742	28.771509130183155	3924.7031580553166	-280.7741984653806	1.920683613938766	3991.943539539394	-249.19793511174277
82	1.3666666666666667	-66.24430386089216	3789.6469581109545	-546.4930708847329	292.14000574352787	3874.9870909945853	-543.241973535429	646.3985746317463	4184.087064881315	-597.6840193143017	697.2159349092955	3956.3692747874643	-490.55014650919793	710.824017677688	4029.5904917593525	-596.5139780288551	679.6987663968941	4208.123545567289	-571.0866438353454	-104.72855474904695	3902.496078640814	-356.9468323231287	240.8708651232377	3986.0167431334776	-355.5074808085011	593.7755116650869	4202.953339943496	-385.84409984080526	681.992817274233	4135.597406238962	-328.5806856082218	641.4755097145977	4139.896966319454	-291.374364012867	631.427248345259	4264.804934713571	-427.35943283320773	-662.6508746535876	3674.4275867588676	-484.4720764704926	-906.9329418058129	3541.611998891164	-433.541462632028	-751.2919709078013	3546.137026259875	-400.77255108768236	-558.8139013343783	3652.550479121601	-644.5358365950867	-296.95046500910655	3747.886857743743	-704.9913731979273	-42.935622185716	3669.5292181946643	-616.3605231776057	72.68271506145578	3793.422616599447	-576.0499347156074	89.28400090648272	3789.881940080891	-592.7942157897141	84.3810714624226	3706.5466878422126	-587.044748310878	-606.4532355689582	3765.2262078576277	-348.53258414894657	-389.14027098587707	3981.474544876164	-338.94913448468674	-126.46548492680091	3977.744106094725	-299.25395433902474	9.517990089196683	3929.115483632997	-323.90846966958884	28.675572805868974	3924.672221394415	-280.56360155416087	1.6977759327237216	3991.4033700863292	-248.0437314721146
83	1.3833333333333333	-66.26218265535171	3789.348280852653	-546.4122104363456	290.5331389087863	3872.9958734520987	-542.4047271729888	649.4858301411564	4187.9291657611	-599.9820552978163	696.4906061434626	3948.803442741769	-486.6474516568395	712.0000477550129	4029.304439497064	-596.6352235798588	678.8328610902408	4205.415069808138	-569.3301928960155	-104.30889707751075	3902.784304739775	-357.0131915646503	239.636514911825	3989.2169215435865	-356.3791188793026	593.406391822107	4202.770088445114	-385.76348092693524	681.8524180556182	4135.349950904226	-328.5040720009427	640.1219801433234	4136.999762857084	-289.14653361627495	632.692087622402	4265.709696648703	-427.49914282101867	-662.4453735205805	3674.485807368064	-484.4515047105896	-906.8991697788426	3541.672086176079	-435.464387149508	-752.3382248132007	3551.3359887274455	-401.9761138883359	-558.8009456110462	3652.5502448973716	-644.5190708365012	-297.34428473549	3747.581535634185	-704.8467289316704	-42.947180231862944	3670.3397512533525	-616.5946740951373	71.82375339896777	3790.2765817905156	-575.1334215656536	89.89026919103995	3789.170697102677	-592.1707265936038	84.34127471145796	3703.905743472445	-586.7946387486803	-606.440385227944	3765.203517306734	-348.5255785641031	-389.4837224927055	3980.907046563458	-338.63952344119923	-127.83640404166619	3976.7250831373826	-298.8692646155538	7.509761374350568	3927.3829229458515	-321.88410432498046	28.769644159660167	3926.527008710994	-281.79795343996807	1.5540872086034447	3990.889887601785	-247.21139719769792
